<?xml version="1.0" encoding="utf-8"?>
<!-- Generator: Adobe Illustrator 15.0.0, SVG Export Plug-In  -->
<!DOCTYPE svg PUBLIC "-//W3C//DTD SVG 1.1//EN" "http://www.w3.org/Graphics/SVG/1.1/DTD/svg11.dtd" [
	<!ENTITY ns_flows "http://ns.adobe.com/Flows/1.0/">
]>
<svg version="1.1"
	 xmlns="http://www.w3.org/2000/svg" xmlns:xlink="http://www.w3.org/1999/xlink" xmlns:a="http://ns.adobe.com/AdobeSVGViewerExtensions/3.0/"
	 x="0px" y="0px" width="287px" height="77px" viewBox="-0.278 -0.394 287 77" enable-background="new -0.278 -0.394 287 77"
	 xml:space="preserve">
<defs>
</defs>
<path fill="#0D1A26" d="M44.473,57.551h-8.332L8.754,15.188c-0.773-1.195-1.395-2.378-1.863-3.551H6.68
	c0.188,1.219,0.281,3.762,0.281,7.629v38.285H0V3.094h8.824l26.648,41.625c1.266,1.969,2.016,3.223,2.25,3.762h0.141
	c-0.234-1.547-0.352-4.195-0.352-7.945V3.094h6.961V57.551z"/>
<path fill="#0D1A26" d="M91.406,54.281c0,14.391-6.984,21.586-20.953,21.586c-4.829,0-9.023-0.902-12.586-2.707v-6.645
	c4.336,2.414,8.496,3.621,12.48,3.621c9.445,0,14.168-4.969,14.168-14.907v-4.113h-0.141c-2.953,4.898-7.36,7.348-13.219,7.348
	c-4.875,0-8.777-1.746-11.707-5.238c-2.93-3.492-4.395-8.121-4.395-13.887c0-6.632,1.617-11.888,4.852-15.768
	c3.234-3.879,7.546-5.818,12.938-5.818c5.18,0,9.023,2.063,11.531,6.188h0.141v-5.273h6.891V54.281z M84.516,34.418
	c0.023-3-0.984-5.578-3.023-7.734c-2.039-2.156-4.547-3.234-7.523-3.234c-3.75,0-6.668,1.377-8.754,4.131
	c-2.086,2.754-3.129,6.534-3.129,11.338c0,4.125,1.007,7.465,3.023,10.02c2.016,2.555,4.688,3.832,8.016,3.832
	c3.352,0,6.094-1.218,8.227-3.656c2.132-2.438,3.187-5.531,3.164-9.281V34.418z"/>
<path fill="#0D1A26" d="M168.68,57.551h-7.77l-5.555-14.906H132.68l-5.238,14.906h-7.77l20.742-54.457h7.523L168.68,57.551z
	 M153.176,36.492l-8.227-22.641c-0.258-0.726-0.539-1.992-0.844-3.797h-0.176c-0.258,1.641-0.551,2.906-0.879,3.797l-8.156,22.641
	H153.176z"/>
<path fill="#0D1A26" d="M175.641,57.551V0h6.891v57.551H175.641z"/>
<path fill="#0D1A26" d="M195.75,21.375c3.867-2.414,8.332-3.621,13.395-3.621c9.375,0,14.063,4.922,14.063,14.766v25.031h-6.82
	v-6.012h-0.176c-2.695,4.617-6.668,6.926-11.918,6.926c-3.773,0-6.773-1.02-9-3.059s-3.34-4.793-3.34-8.262
	c0-7.265,4.301-11.496,12.902-12.691l11.531-1.617c0-6.351-2.625-9.527-7.875-9.527c-4.664,0-8.918,1.57-12.762,4.711V21.375z
	 M207.282,39.27c-3.188,0.422-5.385,1.219-6.592,2.391c-1.207,1.172-1.811,2.813-1.811,4.922c0,1.852,0.656,3.363,1.969,4.535
	s3.047,1.758,5.203,1.758c3,0,5.473-1.055,7.418-3.164s2.918-4.758,2.918-7.945v-3.727L207.282,39.27z"/>
<path fill="#0D1A26" d="M233.79,4.957c0-1.218,0.416-2.244,1.248-3.076c0.832-0.832,1.857-1.248,3.076-1.248
	c1.242,0,2.291,0.41,3.146,1.23c0.855,0.821,1.283,1.852,1.283,3.094c0,1.219-0.428,2.232-1.283,3.041s-1.904,1.213-3.146,1.213
	s-2.273-0.404-3.094-1.213S233.79,6.176,233.79,4.957z M234.598,57.551V18.668h6.891v38.883H234.598z"/>
<path fill="#0D1A26" d="M286.665,57.551h-6.855V35.438c0-7.992-2.918-11.988-8.754-11.988c-3.023,0-5.508,1.125-7.453,3.375
	s-2.918,5.098-2.918,8.543v22.184h-6.891V18.668h6.891v6.434h0.141c2.93-4.898,7.184-7.348,12.762-7.348
	c4.266,0,7.512,1.366,9.738,4.096c2.227,2.73,3.34,6.709,3.34,11.936V57.551z"/>
</svg>
